<svg xmlns="http://www.w3.org/2000/svg" version="1.1" xmlns:xlink="http://www.w3.org/1999/xlink" xmlns:svgjs="http://svgjs.com/svgjs" width="1000" height="1000"><rect width="1000" height="1000" rx="200" ry="200" fill="#ffffff"></rect><g transform="matrix(15.384615384615385,0,0,15.384615384615385,106.57323875335544,269.2307692307692)"><svg xmlns="http://www.w3.org/2000/svg" version="1.1" xmlns:xlink="http://www.w3.org/1999/xlink" xmlns:svgjs="http://svgjs.com/svgjs" width="52" height="30"><svg width="52" height="30" viewBox="0 0 52 30" fill="none" xmlns="http://www.w3.org/2000/svg">
    <path opacity="0.3" d="M22.8734 7.11955V4.05978L50.3058 1V29L22.8734 25.9402V22.8805" stroke="#1E429F" stroke-width="1.51968"></path>
    <path d="M7.69537 8.03735H7.99523C8.71325 8.03735 9.29257 8.60953 9.73318 9.75389C13.0541 16.2998 14.7635 19.7022 14.8614 19.9613V20.4876C14.8614 21.0751 14.4728 21.5473 13.6956 21.9043C13.5283 21.943 13.3927 21.9624 13.2886 21.9624H13.0347C12.3105 21.9624 11.7251 21.3698 11.2784 20.1847C8.99373 15.6664 7.8351 13.394 7.80246 13.3675C5.24449 18.5079 3.89411 21.1822 3.75132 21.3902C3.36986 21.7717 2.97515 21.9624 2.56718 21.9624H2.32546C1.73594 21.9624 1.25046 21.6064 0.869007 20.8945C0.809851 20.6865 0.780273 20.5212 0.780273 20.3989V20.1847C0.780273 19.9256 1.11073 19.178 1.77164 17.9419L6.4531 8.69827C6.82027 8.25766 7.23436 8.03735 7.69537 8.03735ZM17.3765 8.03735H17.6488C18.3811 8.03735 18.9706 8.61973 19.4174 9.78449C19.4419 9.79061 20.5872 12.0732 22.8535 16.6323C22.8861 16.5996 24.2294 13.9611 26.8832 8.71662C27.2524 8.26378 27.6543 8.03735 28.0888 8.03735H28.3703C28.9394 8.03735 29.4055 8.35761 29.7686 8.99812C29.8645 9.17967 29.9124 9.35102 29.9124 9.51217V9.91912C29.9124 10.1068 29.379 11.2205 28.3121 13.2604C25.6705 18.5314 24.3008 21.2311 24.2029 21.3596C23.8337 21.7615 23.4491 21.9624 23.0493 21.9624H22.7464C22.008 21.9624 21.4389 21.4351 21.0391 20.3805C17.606 13.6408 15.8895 10.219 15.8895 10.1149C15.8507 10.0435 15.8313 9.94359 15.8313 9.81508V9.6009C15.8313 8.87471 16.2719 8.36271 17.1531 8.06489C17.2245 8.04653 17.299 8.03735 17.3765 8.03735ZM34.7958 8.03735H35.0498C35.5801 8.03735 36.1717 8.43818 36.8244 9.23985C36.8448 9.23985 37.981 10.373 40.233 12.6393C43.1092 9.72635 44.5697 8.26684 44.6146 8.26072C44.9247 8.11181 45.1929 8.03735 45.4193 8.03735H45.6641C46.2598 8.03735 46.7514 8.38311 47.1389 9.07462C47.2103 9.27656 47.246 9.44179 47.246 9.5703V20.457C47.246 20.9935 46.9125 21.4504 46.2455 21.8278C46.0578 21.9175 45.8834 21.9624 45.7222 21.9624H45.3337C44.8278 21.9624 44.3841 21.6778 44.0027 21.1087C43.8334 20.8741 43.7487 20.511 43.7487 20.0194V14.0376C42.1107 15.6817 41.2795 16.5038 41.255 16.5038C40.9429 16.7241 40.593 16.8342 40.2055 16.8342C39.5894 16.8342 38.9418 16.4232 38.2625 15.6011C37.214 14.5404 36.6796 14.01 36.6592 14.01V20.2336C36.6592 21.0822 36.2063 21.6483 35.3007 21.9318C35.2741 21.9522 35.2099 21.9624 35.1079 21.9624H34.7193C34.1747 21.9624 33.7116 21.6421 33.3302 21.0016C33.22 20.7752 33.1649 20.5549 33.1649 20.3407V9.62844C33.1649 8.96956 33.5729 8.45858 34.3888 8.09549C34.5561 8.05673 34.6918 8.03735 34.7958 8.03735Z" fill="#1E429F"></path>
</svg></svg></g></svg>
